<?xml version="1.0" encoding="UTF-8" standalone="no"?>
<!-- Created with Inkscape (http://www.inkscape.org/) -->

<svg
   xmlns:dc="http://purl.org/dc/elements/1.1/"
   xmlns:cc="http://creativecommons.org/ns#"
   xmlns:rdf="http://www.w3.org/1999/02/22-rdf-syntax-ns#"
   xmlns:svg="http://www.w3.org/2000/svg"
   xmlns="http://www.w3.org/2000/svg"
   xmlns:sodipodi="http://sodipodi.sourceforge.net/DTD/sodipodi-0.dtd"
   xmlns:inkscape="http://www.inkscape.org/namespaces/inkscape"
   id="svg3548"
   version="1.1"
   inkscape:version="0.91 r"
   width="1366"
   height="768"
   viewBox="0 0 1366 768"
   sodipodi:docname="Kokopelli.svg">
  <metadata
     id="metadata3554">
    <rdf:RDF>
      <cc:Work
         rdf:about="">
        <dc:format>image/svg+xml</dc:format>
        <dc:type
           rdf:resource="http://purl.org/dc/dcmitype/StillImage" />
        <dc:title></dc:title>
      </cc:Work>
    </rdf:RDF>
  </metadata>
  <defs
     id="defs3552" />
  <sodipodi:namedview
     pagecolor="#ffffff"
     bordercolor="#666666"
     borderopacity="1"
     objecttolerance="10"
     gridtolerance="10"
     guidetolerance="10"
     inkscape:pageopacity="0"
     inkscape:pageshadow="2"
     inkscape:window-width="1366"
     inkscape:window-height="716"
     id="namedview3550"
     showgrid="false"
     inkscape:zoom="0.66673026"
     inkscape:cx="567.9222"
     inkscape:cy="444.94966"
     inkscape:window-x="0"
     inkscape:window-y="0"
     inkscape:window-maximized="1"
     inkscape:current-layer="svg3548" />
  <path
     style="fill:none;fill-rule:evenodd;stroke:#000000;stroke-width:1px;stroke-linecap:butt;stroke-linejoin:miter;stroke-opacity:1"
     d="m 437.2083,246.04979 c 0,0 20.98688,1.14492 44.24578,15.7485 3.37885,2.12148 22.74886,10.48084 -11.99886,49.12031 4.24986,11.24853 3.82419,10.71102 14.06116,15.37353 13.21647,-5.07059 13.99665,-4.47571 27.18491,-2.24978 16.71203,-12.85831 26.77659,-21.92445 26.24735,-28.00514 -0.71785,-8.24765 -1.98524,-24.05239 -2.99957,-37.23864 -9.34498,-13.94864 -2.10741,-18.17912 9.18662,-17.24835 6.88482,-9.90966 20.9445,0.59939 19.70446,6.48421 -3.91575,9.3683 -8.83334,5.67473 -6.39215,12.91757 2.44119,7.24284 12.24116,24.10972 13.76278,34.10277 -2.37844,12.1046 -28.86457,27.32171 -42.92789,38.91081 34.93064,56.2473 24.50618,110.19222 1.41668,150.56146 -9.83012,17.68439 -27.23914,4.03558 -29.99714,23.24778 0.64576,21.59505 -4.23869,29.44663 -12.74878,48.70767 61.7924,1.04944 38.70348,33.21125 -14.99857,16.53611 -18.47068,-18.2507 19.55717,-29.1923 13.49871,-56.24464 -4.54418,16.42177 -16.34755,6.75356 -34.49671,1.49986 -2.7013,44.84369 -31.55422,40.94393 -12.74878,-17.99828 4.22015,-10.30166 5.86557,-4.20827 14.99857,1.49985 28.63895,23.07789 21.77185,17.37709 26.24749,-16.49842 -5.11794,-10.35242 -5.37175,-11.79512 3.74964,-26.99743 45.92058,-52.11546 8.77014,-99.25158 -20.24806,-125.23805 -16.71953,-9.36017 -18.90227,-7.68752 -37.49643,-6.74936 -36.58588,7.5407 -40.68356,21.53903 -53.50615,47.77578 -14.65299,5.50209 -8.11503,-13.09577 -7.59027,-17.29385 11.87087,-40.8818 49.54161,-36.7862 44.41051,-40.98093 -23.06886,1.02105 -42.14681,13.01443 -47.99542,30.37211 -9.93638,21.50494 -22.47589,24.26588 -13.12375,-6.18691 13.797,-26.36939 26.7509,-34.81537 47.99543,-44.24578 0,0 3.74964,-3.74964 0.56245,-5.2495 -26.88744,-10.65495 -45.61511,21.98286 -53.77521,37.79373 -9.28081,15.79944 -10.61788,0.57872 -2.70793,-18.0139 14.83098,-34.86075 31.80744,-37.08132 52.07454,-37.29333 1.06314,-0.25456 3.58694,-1.61628 3.09622,-3.85946 -0.47429,-2.16808 -11.99886,-2.43727 -13.31123,-2.24979 -21.90085,0.40772 -25.10882,8.271 -40.12118,17.06087 -20.35053,13.99589 -26.58164,3.8799 -3.76068,-15.91551 17.12248,-14.56509 32.7649,-19.84135 63.94244,-14.45659 5.07732,0.27549 14.3379,4.82369 14.72792,2.38236 0.17415,-3.20994 -20.39302,-11.07315 -20.39302,-11.07315 -7.03881,-3.31539 -50.35412,-0.0307 -56.96792,-1.79878 -15.34848,-7.62346 19.00641,-20.0391 61.32065,-12.7582 12.27671,2.9491 22.8733,9.45251 29.99714,14.24864 l 2.99971,1.31237 z"
     id="path3558"
     inkscape:connector-curvature="0"
     sodipodi:nodetypes="cscccscccsccccccccccccccccccccccscsccccccccccc" />
  <path
     style="fill:none;fill-rule:evenodd;stroke:#000000;stroke-width:1px;stroke-linecap:butt;stroke-linejoin:miter;stroke-opacity:1"
     d="m 543.32317,258.79857 3.74964,37.49643 -0.9374,5.81194 3.37467,-1.68734 10.12404,-6.37439 0,-2.43727 -7.78051,-16.49843 z"
     id="path3562"
     inkscape:connector-curvature="0"
     sodipodi:nodetypes="cccccccc" />
  <path
     style="fill:none;fill-rule:evenodd;stroke:#000000;stroke-width:1.37381446px;stroke-linecap:butt;stroke-linejoin:miter;stroke-opacity:1"
     d="m 632.96613,193.75011 c -0.0149,15.67643 -1.12729,21.50934 12.38439,30.92209 -48.9036,-1.06641 -148.62219,48.40062 -155.53243,45.71093 -10.50299,-13.69735 123.44058,-31.58523 143.14804,-76.63302 z"
     id="path3564"
     inkscape:connector-curvature="0"
     sodipodi:nodetypes="cccc" />
  <path
     style="fill:#000000"
     d="m 489.79372,576.34426 c -5.01811,-0.60946 -16.60872,-3.46479 -18.22156,-4.48885 -2.63024,-1.67005 -4.64723,-5.53983 -4.63198,-8.88686 0.0185,-4.0669 1.86301,-7.7071 8.16976,-16.12346 2.9362,-3.91837 6.4263,-9.30562 7.75576,-11.97166 2.17928,-4.37022 2.41776,-5.50749 2.42283,-11.55408 0.003,-3.82707 -0.31638,-6.80281 -0.74431,-6.93048 -0.41246,-0.12306 -1.50801,1.39377 -2.43456,3.37074 -1.76297,3.76162 -3.99376,5.34028 -7.53727,5.33391 -1.11486,-0.002 -6.89668,-1.68934 -12.84847,-3.74964 -5.95179,-2.06029 -11.26691,-3.746 -11.81137,-3.746 -0.62654,0 -0.98993,0.93931 -0.98993,2.55878 0,3.88266 -1.91862,13.03505 -3.76041,17.93824 -3.10017,8.25321 -8.18114,11.82387 -10.90646,7.66451 -3.5719,-5.4514 -3.12124,-19.44241 1.16019,-36.01986 2.42659,-9.39558 4.18865,-13.36047 6.10133,-13.72882 0.62569,-0.12049 5.44889,3.08435 10.71822,7.12188 12.93397,9.91041 14.99971,11.36007 17.93631,12.58706 5.33461,2.22895 6.46543,-0.58968 8.04354,-20.04874 0.86466,-10.66164 0.83989,-11.18434 -0.69945,-14.76263 -0.87771,-2.0403 -1.59584,-4.8735 -1.59584,-6.29601 0,-3.17056 5.01298,-13.43629 8.73905,-17.89611 7.90874,-9.46616 13.49859,-19.415 17.19826,-30.60957 1.94538,-5.88641 2.10965,-7.29296 2.14583,-18.37325 0.0475,-14.55139 -1.09778,-19.37553 -7.83371,-32.99685 -5.83534,-11.80017 -12.57173,-21.04944 -23.76099,-32.62454 -8.03097,-8.30791 -9.89048,-9.82483 -15.37353,-12.54111 -9.02559,-4.47125 -11.80631,-4.99535 -23.74974,-4.47634 -11.88123,0.51631 -20.71666,2.59899 -30.40314,7.1666 -12.26709,5.78449 -17.77904,11.86203 -26.70505,29.44531 -5.87551,11.57412 -6.71062,12.6038 -10.25542,12.64488 -5.32972,0.0617 -4.04344,-14.18449 2.50436,-27.73712 2.87043,-5.9412 4.45387,-8.12339 9.53494,-13.14036 6.61245,-6.52904 12.81638,-10.12807 22.59133,-13.10571 7.08465,-2.15812 8.62417,-2.82907 8.62417,-3.75853 0,-1.50373 -2.54319,-1.75044 -8.7674,-0.85052 -12.79205,1.84955 -23.43921,6.91992 -31.72205,15.10662 -4.10265,4.05504 -5.72206,6.47156 -9.63251,14.37385 -4.96308,10.02945 -10.13408,16.72173 -12.5595,16.25442 -2.80317,-0.54009 -2.80378,-7.254 -0.002,-17.70249 1.91901,-7.15543 10.23795,-19.83493 18.37694,-28.00964 6.3919,-6.41996 12.66032,-10.71194 23.77445,-16.2783 4.17486,-2.09092 7.80264,-4.35411 8.06174,-5.0293 1.48808,-3.87789 0.0984,-5.02965 -7.89106,-6.54021 -8.96295,-1.6946 -19.05561,2.25841 -27.88332,10.9211 -6.39822,6.27862 -10.62668,12.07121 -17.42231,23.86692 -5.74133,9.96568 -7.49896,12.08351 -8.62572,10.39344 -2.0993,-3.14882 2.18709,-18.13376 8.86181,-30.98033 10.38627,-19.99005 23.08514,-28.24076 43.4951,-28.25968 3.73001,-0.003 5.00273,-0.32001 6.23302,-1.55031 1.98133,-1.98132 1.61198,-3.80273 -1.02767,-5.06788 -2.95098,-1.41437 -17.58112,-1.30906 -23.96962,0.17253 -6.50584,1.50881 -10.00841,3.32351 -21.91725,11.35543 -14.28518,9.63465 -20.66655,12.37042 -22.81538,9.78123 -1.3408,-1.61557 -0.33409,-4.15538 3.87468,-9.77538 7.86642,-10.50407 23.49279,-21.28407 35.54584,-24.52164 10.4461,-2.80593 33.22234,-1.82006 45.56853,1.97242 5.04757,1.55051 7.19262,1.47512 7.19262,-0.25279 0,-0.761 -0.59057,-1.90466 -1.31238,-2.54147 -1.63128,-1.43921 -10.09832,-5.66073 -17.06087,-8.50627 l -5.2495,-2.14543 -27.62158,-0.39837 c -25.95585,-0.37435 -27.68394,-0.48376 -28.6557,-1.81434 -2.44989,-3.35449 3.53978,-6.97324 15.98788,-9.65932 5.99009,-1.29255 9.90434,-1.57514 21.91615,-1.58227 22.96237,-0.0136 31.92734,2.21453 48.91997,12.15851 8.47551,4.95981 9.02658,5.16602 14.99857,5.61248 11.98541,0.89602 28.11959,6.50456 40.924,14.22593 8.15303,4.91648 9.90307,7.32236 9.87872,13.58091 -0.0292,7.49363 -4.28144,16.20531 -13.48091,27.61839 -2.681,3.3261 -5.28014,6.5891 -5.77588,7.25111 -0.7238,0.96656 -0.54858,2.0704 0.88954,5.60392 2.21272,5.43679 4.07356,7.46558 9.10573,9.92759 l 3.92734,1.92147 5.61419,-1.93776 c 6.12316,-2.11343 10.22174,-2.37606 17.44638,-1.11794 l 4.7077,0.81981 7.35259,-5.9963 c 7.38392,-6.02187 15.44604,-13.91444 17.74377,-17.37063 0.86381,-1.29932 1.22045,-3.43131 1.19175,-7.12432 -0.0539,-6.93526 -2.56759,-35.67552 -3.25637,-37.23149 -0.4464,-1.00844 1.72998,-2.0573 12.83794,-6.18691 13.93423,-5.18034 15.20702,-5.52548 15.20702,-4.12371 0,1.4152 -2.98273,5.77824 -5.07569,7.42457 -3.00041,2.36012 -2.46977,5.00001 3.7695,18.75276 9.01323,19.86719 9.39791,21.68517 5.75298,27.188 -3.07657,4.64479 -8.65179,9.63573 -20.88992,18.70066 -5.59863,4.14699 -12.20414,9.07237 -14.6789,10.94529 -2.47477,1.87292 -4.60343,3.47569 -4.73037,3.56172 -0.12695,0.086 0.7844,1.80632 2.02521,3.82289 4.00943,6.51616 11.16415,22.15874 13.85846,30.29918 4.93809,14.91964 6.09505,22.88083 6.09505,41.94044 0,14.81196 -0.21673,17.92701 -1.77395,25.49757 -2.50674,12.18664 -7.5157,26.96844 -12.77088,37.68779 -8.42257,17.18011 -9.97391,18.70874 -22.20166,21.87658 -11.46252,2.96959 -13.86121,6.32428 -13.86949,19.39722 -0.007,11.00419 -2.09646,18.82537 -9.32774,34.91506 -1.88388,4.19165 -3.42523,7.73706 -3.42523,7.8787 0,0.14165 3.34299,0.47661 7.42887,0.74438 18.05504,1.18321 29.31762,5.45029 29.31762,11.10762 0,4.62216 -10.00749,8.18325 -22.49785,8.00568 -3.91838,-0.0557 -8.13673,-0.22423 -9.37411,-0.37452 z m 63.84047,-277.53801 c 5.24072,-3.21916 7.02097,-4.70966 7.02388,-5.8807 0.005,-2.04163 -16.20397,-34.80292 -17.21917,-34.80292 -1.04035,0 -1.00267,0.7507 1.03525,20.62304 1.11864,10.90818 1.56818,18.55773 1.22296,20.81051 -0.33529,2.18801 -0.26369,3.56216 0.18561,3.56216 0.40231,0 3.89047,-1.94044 7.75147,-4.31209 z"
     id="path3566"
     inkscape:connector-curvature="0" />
  <path
     style="fill:#000000"
     d="m 531.78488,252.8579 c -0.27889,-0.87871 -0.39189,-1.68162 -0.25112,-1.78424 0.14078,-0.10263 6.1177,-3.17742 13.62577,-5.68715 10.82821,-3.61956 14.0967,-3.4276 14.72748,-2.66756 0.62128,0.7486 -1.58009,3.44615 -12.24101,7.47788 -7.50505,2.83824 -14.50218,3.90414 -14.80445,4.02996 -0.30228,0.12582 -0.77778,-0.49018 -1.05667,-1.36889 z"
     id="path3568"
     inkscape:connector-curvature="0"
     sodipodi:nodetypes="scssscs" />
  <path
     style="fill:#000000"
     d=""
     id="path3570"
     inkscape:connector-curvature="0" />
  <path
     style="fill:#000000"
     d="m 530.66482,248.01179 c 0,-3.57915 3.50658,-5.62745 9.6735,-5.65061 2.6894,-0.0101 3.8397,-0.42353 5.2163,-1.87482 1.2568,-1.32499 2.55428,-1.85891 4.49957,-1.85163 3.24187,0.0122 6.1082,0.6976 6.1082,1.46072 0,0.30035 -5.31512,2.32095 -11.81137,4.49021 -6.49626,2.16926 -12.23321,4.10582 -12.74879,4.30346 -0.51624,0.1979 -0.93741,-0.19627 -0.93741,-0.87733 z"
     id="path3572"
     inkscape:connector-curvature="0" />
  <path
     style="fill:#000000"
     d="m 490.16869,268.74326 c 0,-1.44679 5.00925,-4.64776 11.30866,-7.22636 8.19431,-3.35427 27.50088,-9.83279 27.94519,-9.3773 0.19237,0.19721 0.46622,0.97049 0.60854,1.71839 0.27706,1.45587 -1.01458,2.03233 -23.8941,10.66407 -11.4721,4.32807 -15.96829,5.51663 -15.96829,4.2212 z"
     id="path3574"
     inkscape:connector-curvature="0" />
  <path
     style="fill:#000000"
     d=""
     id="path3576"
     inkscape:connector-curvature="0" />
  <path
     style="fill:#000000"
     d="m 561.49785,242.10274 c -0.75149,-0.90549 -0.3673,-1.08935 1.94215,-2.00926 7.76736,-3.09395 22.48508,-9.63091 31.47628,-14.04071 15.58514,-7.64384 27.47018,-15.32895 33.57068,-23.22734 l 3.04324,-3.94012 0.50974,5.95609 c 0.61866,7.22885 2.39005,11.41635 6.55506,15.49594 l 5.60296,4.01379 -7.40484,-0.0833 c -2.32942,-0.0262 -10.43481,1.66072 -57.89048,14.15954 -7.98082,2.10198 -14.45372,4.52974 -15.10945,4.80135 -0.67033,0.27767 -1.78691,-0.51338 -2.29534,-1.12601 z"
     id="path3578"
     inkscape:connector-curvature="0"
     sodipodi:nodetypes="cssscsscsscsc" />
  <path
     style="fill:#000000"
     d="m 406.35283,315.18731 -0.76228,-0.0478 0,-29.82161 c 0,-21.84431 0.0395,-29.8216 0.14782,-29.8216 0.0813,0 1.28935,0.32342 2.68454,0.71871 3.39296,0.96131 4.50573,1.17526 5.80569,1.11622 0.97267,-0.0442 1.09288,-0.0805 1.3838,-0.41876 0.63086,-0.73343 0.23211,-2.3154 -0.84778,-3.3634 -0.71694,-0.69576 -2.98984,-2.02496 -6.35696,-3.71755 l -2.81711,-1.41611 0,-7.59543 c 0,-4.17748 0.0247,-7.59542 0.0548,-7.59542 0.14207,0 3.63202,1.3769 5.04914,1.99205 0.87496,0.37981 2.8138,1.30701 4.30852,2.06045 2.66345,1.34254 4.27354,2.23051 9.87646,5.44689 3.46513,1.98918 4.49673,2.53586 5.81282,3.08042 1.50263,0.62174 1.38346,0.42797 -0.14598,-0.23735 -0.71062,-0.30913 -2.19959,-1.15348 -3.30881,-1.87634 -7.29222,-4.75216 -13.92122,-8.2234 -19.91181,-10.42672 l -1.72912,-0.63597 -0.003,-0.4938 -0.003,-0.4938 1.02742,0.3804 c 7.00802,2.59474 14.37672,6.42895 21.4922,11.18321 0.75609,0.50519 2.02072,1.20636 2.81027,1.55817 l 1.43555,0.63964 3.08909,0.14104 c 12.14064,0.55431 27.99533,5.51859 41.18645,12.89593 2.6276,1.46952 7.27254,4.3067 8.15925,4.98375 1.19342,0.91124 2.72246,2.53066 3.32452,3.52103 0.29165,0.47977 0.56011,0.87375 0.59656,0.8755 0.0365,0.002 0.1856,-0.24839 0.33143,-0.55589 0.38794,-0.81802 1.6806,-2.06939 3.09913,-3.00013 4.61366,-3.02716 11.97888,-5.95101 29.64563,-11.76875 3.64567,-1.20054 6.8333,-2.25504 7.08361,-2.34335 l 0.45513,-0.16056 -0.0323,-1.45614 c -0.0509,-2.29439 0.47244,-3.62562 1.97077,-5.01281 1.8767,-1.73749 4.61326,-2.47174 9.24056,-2.47935 l 2.49343,-0.004 0.46399,-0.61634 c 1.06764,-1.41818 3.1169,-2.71228 5.00442,-3.16026 1.28227,-0.30434 3.77509,-0.20737 5.20346,0.20239 1.20755,0.34642 3.06202,1.22053 4.28626,2.02036 l 0.90575,0.59173 2.47479,-0.89051 c 7.07023,-2.54409 14.31517,-5.3876 20.76944,-8.15164 24.10723,-10.32389 39.7504,-20.94067 47.21684,-32.04532 l 0.86908,-1.29256 0.72527,0 0.72528,0 -0.30058,0.49714 c -3.41741,5.65226 -9.61447,11.82682 -17.22065,17.15813 -11.95982,8.38285 -28.65762,16.40798 -51.12036,24.56895 -1.49505,0.54317 -2.77749,1.02418 -2.84987,1.06892 -0.0724,0.0447 0.13244,0.36363 0.45516,0.70865 0.32275,0.34503 0.80664,0.93333 1.07535,1.30735 0.45865,0.63841 0.51038,0.67151 0.84519,0.5409 0.19617,-0.0765 2.53412,-0.90122 5.19546,-1.83267 32.28227,-11.29851 56.07102,-17.03537 73.04098,-17.61446 l 2.57265,-0.0878 -1.22735,-0.96892 c -4.47694,-3.53429 -6.99574,-6.71662 -8.36187,-10.56466 -0.95828,-2.6992 -1.30591,-5.34926 -1.42168,-10.83759 l -0.0832,-3.94395 0.66732,0 0.66733,0 0.0734,4.34166 c 0.0876,5.18305 0.28518,6.87282 1.11183,9.50803 1.36512,4.3518 4.5808,8.09189 10.6147,12.34572 1.00185,0.7063 1.87285,1.32999 1.93553,1.38597 0.0627,0.056 -0.83217,0.0698 -1.98855,0.0306 -2.53899,-0.0859 -7.43875,0.13545 -11.01324,0.49755 -12.19304,1.23518 -27.32984,4.6537 -45.84064,10.35272 -6.07439,1.87016 -25.33523,8.37136 -25.60719,8.64332 -0.0264,0.0264 0.047,0.31075 0.16292,0.63201 0.11596,0.32125 0.24241,1.03152 0.281,1.57837 l 0.0702,0.99428 -0.80527,1.60315 c -1.25552,2.49952 -2.41829,3.94077 -4.55246,5.64268 -1.716,1.36844 -1.9802,1.96366 -1.64345,3.70258 0.34833,1.79872 1.47987,4.63203 3.86133,9.66848 4.26538,9.02074 5.75296,12.30001 7.14526,15.75122 1.55065,3.84372 2.7524,7.62468 3.12844,9.8426 0.20038,1.18193 -0.0383,2.08976 -1.13004,4.29841 -2.07839,4.20465 -6.46286,8.87589 -14.11827,15.04167 l -2.146,1.72842 -0.72728,0 -0.72726,0 1.63396,-1.2809 c 9.34301,-7.32417 14.60297,-13.12712 16.13845,-17.80441 0.36954,-1.12569 0.35522,-1.39023 -0.19343,-3.57329 -1.15564,-4.59827 -3.05844,-9.29122 -8.14776,-20.09518 -3.91014,-8.30073 -4.86784,-10.54059 -5.4409,-12.72524 -0.13409,-0.5112 -0.24709,-0.80191 -0.2511,-0.64601 -0.01,0.38063 0.5525,2.32975 1.14208,3.95878 0.77759,2.14853 2.02608,5.07396 4.78059,11.20175 6.06249,13.48684 7.32702,16.97083 7.32702,20.18715 0,1.46388 -0.22284,2.40627 -0.87702,3.7089 -2.12504,4.23152 -6.45908,8.67668 -14.9956,15.38008 l -2.15164,1.6896 -13.80714,-0.0338 -13.80714,-0.0337 2.17151,-1.98331 c 4.39636,-4.01534 9.11453,-8.91264 10.77049,-11.17942 0.56727,-0.77652 1.08344,-2.12671 1.20168,-3.14337 l 0.0771,-0.66285 -0.24678,0.66285 c -0.62694,1.68398 -1.7303,3.48913 -3.4438,5.63422 -1.38084,1.72864 -5.82002,6.12719 -8.73717,8.65721 l -2.41557,2.09501 -0.6543,-0.0402 -0.6543,-0.0402 1.29224,-1.0862 c 6.91075,-5.80884 11.44115,-10.68029 13.16802,-14.15934 1.03672,-2.08865 1.07605,-2.49913 0.68579,-7.15877 -0.49681,-5.93185 -1.30735,-15.9771 -2.04514,-25.34596 l -0.67012,-8.50959 -0.73269,-1.16801 c -0.40299,-0.64241 -0.77407,-1.20887 -0.82463,-1.2588 -0.0506,-0.0499 -0.92711,0.23624 -1.9479,0.63593 -2.49271,0.97602 -4.54961,1.77761 -13.05813,5.08881 -16.18828,6.29987 -22.86626,8.57213 -25.94811,8.82915 l -1.04394,0.0871 0.16573,1.01053 c 0.22368,1.36396 0.21633,3.63575 -0.0171,5.27755 -1.20069,8.44551 -7.43844,19.05864 -18.8749,32.1144 -0.66629,0.76064 -1.20796,1.44669 -1.20372,1.52456 0.004,0.0779 0.35328,1.03643 0.77563,2.13013 l 0.7679,1.98855 -0.39477,0.0428 c -0.21713,0.0236 -0.44319,-0.006 -0.50237,-0.0663 -0.0592,-0.06 -0.44693,-1.00393 -0.86167,-2.09763 -0.41475,-1.0937 -0.78443,-2.01838 -0.8215,-2.05484 -0.0371,-0.0365 -0.0269,0.2512 0.0227,0.63924 0.0734,0.57521 0.55315,2.08133 1.0737,3.371 0.089,0.22061 -1.45495,0.23077 -31.43904,0.20693 -17.34297,-0.0138 -31.87569,-0.0466 -32.29494,-0.0729 z m 65.19782,-7.3492 c 8.65355,-9.96164 14.14013,-18.53731 16.56666,-25.89415 0.88492,-2.68294 1.15518,-4.16238 1.22297,-6.69478 0.0487,-1.81858 0.0147,-2.39986 -0.20142,-3.44744 -0.62835,-3.04542 -2.17393,-5.51768 -4.71186,-7.53697 -0.84958,-0.67596 -6.07945,-3.87533 -8.65918,-5.29725 -11.46416,-6.31889 -25.39488,-10.98654 -36.63709,-12.27567 -1.70352,-0.19534 -6.87952,-0.43057 -6.76107,-0.30727 0.17199,0.17903 2.46552,0.51784 5.17023,0.76377 6.48987,0.59009 11.53606,1.66342 18.4935,3.93355 10.10453,3.29701 21.48351,8.88592 27.53991,13.52655 2.6617,2.03948 4.12849,4.06617 4.69683,6.48966 0.3029,1.2916 0.34158,5.51402 0.0648,7.06761 -0.90027,5.05248 -3.13494,10.0623 -7.24391,16.23981 -1.9209,2.88792 -3.6098,5.13733 -7.7803,10.36245 -4.3582,5.46028 -4.18717,5.23356 -4.28965,5.68638 l -0.0882,0.38983 0.31135,-0.35468 c 0.17125,-0.19507 1.20916,-1.3882 2.30649,-2.6514 z m 76.75137,-5.84077 c 4.35809,-2.42783 9.6428,-5.79436 10.87073,-6.92499 l 0.66285,-0.61034 -1.06056,0.64936 c -0.58331,0.35714 -2.88008,1.79798 -5.10394,3.20185 -2.22386,1.40388 -4.93823,2.99979 -6.03193,3.54647 -1.0937,0.54668 -2.01665,1.0203 -2.05099,1.05249 -0.0344,0.0322 0.0222,0.11081 0.12559,0.17473 0.24127,0.14911 0.74664,-0.0636 2.58825,-1.08957 z m -2.18574,-2.56434 0.51197,-3.1498 -1.84628,-18.43806 c -1.01544,-10.14093 -1.84688,-18.56582 -1.84765,-18.72197 -0.002,-0.35028 0.61535,-0.55581 0.86233,-0.28723 0.0877,0.0954 2.07157,3.8423 4.4086,8.32648 2.92146,5.6056 5.43332,10.66926 8.03915,16.20614 l 3.79006,8.0531 0.004,1.42565 0.004,1.42565 0.26243,-0.31505 c 0.37322,-0.4481 0.45594,-0.90941 0.28062,-1.56495 -0.76159,-2.84748 -10.76062,-23.46789 -15.24763,-31.44429 -1.30331,-2.31684 -1.82215,-2.99971 -2.17489,-2.86247 -0.34994,0.13615 -0.43275,0.62938 -0.39978,2.38144 0.0362,1.92599 0.19707,3.75771 1.29789,14.78154 1.65845,16.60799 1.82342,19.60528 1.44101,26.18255 -0.0424,0.72913 -0.0369,1.28641 0.0122,1.23838 0.0491,-0.048 0.31962,-1.50472 0.60121,-3.23711 l 3e-5,0 z m 1.8904,1.25478 c 0.59992,-0.29981 3.37262,-1.97998 6.16156,-3.73372 l 5.0708,-3.18861 0,-0.9774 0,-0.97739 -3.78928,-8.04874 c -2.42637,-5.15383 -5.09797,-10.55679 -7.42785,-15.02186 -2.00122,-3.83522 -3.72375,-7.08649 -3.82784,-7.22506 -0.17,-0.22629 -0.18186,-0.18446 -0.11651,0.41091 0.04,0.36456 0.83069,8.25191 1.75702,17.52745 l 1.68424,16.8646 -0.36723,2.22546 c -0.37871,2.29505 -0.42341,2.68945 -0.30489,2.68945 0.0381,0 0.56006,-0.24529 1.15998,-0.54509 z m -10.68374,-8.56909 c -0.17044,-5.60624 -1.5538,-22.36673 -2.56535,-31.08114 -0.12949,-1.1155 -0.25361,-1.93819 -0.27583,-1.8282 -0.078,0.38596 2.75323,35.66017 2.86218,35.66017 0.0344,0 0.025,-1.23787 -0.021,-2.75083 z M 493.6657,269.2914 c 3.38433,-0.87981 8.45262,-2.66877 18.24589,-6.44028 8.20385,-3.1594 19.25904,-7.47964 19.33546,-7.55606 0.033,-0.033 -0.18091,-0.58289 -0.47537,-1.22196 -0.29446,-0.63907 -0.66945,-1.5348 -0.83332,-1.99051 -0.16386,-0.45571 -0.32674,-0.82856 -0.36194,-0.82856 -0.1713,0 -18.97517,6.31408 -21.11165,7.089 -7.5372,2.73381 -12.92751,5.13886 -15.70953,7.00927 -1.06299,0.71468 -2.28977,1.89508 -2.59909,2.50083 -0.28072,0.54975 -0.32656,1.30694 -0.10426,1.72231 0.13386,0.25013 0.23088,0.26784 1.0937,0.19972 0.52074,-0.0411 1.65479,-0.25881 2.52011,-0.48376 z m 62.15611,-13.10061 c 0.19432,-0.29363 0.69362,-0.82357 1.10956,-1.17763 0.41593,-0.35405 1.09041,-0.93036 1.49882,-1.28067 1.14356,-0.9809 2.30968,-2.52335 3.19007,-4.21956 0.69502,-1.3391 0.80045,-1.63831 0.80045,-2.2716 0,-0.75942 -0.35239,-2.08551 -0.55419,-2.08551 -0.26793,0 -15.20549,5.56164 -22.18154,8.25876 -7.09606,2.74352 -6.84581,2.63745 -6.76003,2.86532 0.10512,0.27922 1.4367,2.39648 1.47998,2.3532 0.0186,-0.0186 -0.0328,-0.43507 -0.11406,-0.92561 -0.14172,-0.85527 -0.13495,-0.90554 0.16486,-1.22468 0.66281,-0.70553 3.77461,-2.05304 10.99604,-4.76165 10.04431,-3.76742 14.25473,-5.20625 15.60445,-5.33251 0.77936,-0.0729 0.83075,-0.0598 0.97105,0.24815 0.46009,1.00978 -1.80617,4.59577 -4.72276,7.47301 -1.43311,1.41378 -1.64246,1.6781 -1.83038,2.3109 -0.1167,0.39298 -0.20295,1.10637 -0.19167,1.5853 l 0.0205,0.87079 0.0828,-1.07606 c 0.0658,-0.85564 0.15512,-1.18542 0.43606,-1.60995 z m -16.66409,-3.91754 c 5.90432,-2.2807 16.1199,-6.11543 19.68361,-7.38884 1.27598,-0.45595 2.34297,-0.848 2.37107,-0.87122 0.16018,-0.13236 -1.99386,-2.56933 -2.27104,-2.56933 -0.0669,0 -2.33894,0.76826 -5.04904,1.70724 -4.28757,1.48554 -17.14478,5.78127 -21.73068,7.26045 -1.1629,0.3751 -1.5577,0.55833 -1.5577,0.72296 0,0.381 1.05103,2.94813 1.49788,3.65856 0.0742,0.11796 0.31077,0.0781 0.92489,-0.15591 0.45386,-0.17292 3.21281,-1.23669 6.13101,-2.36391 z m -0.0487,-5.47483 c 4.76447,-1.57562 10.91875,-3.64537 13.67617,-4.59945 5.79297,-2.00437 5.4712,-1.68327 2.94069,-2.93455 -3.35258,-1.65778 -6.62708,-1.76949 -9.18819,-0.31345 -1.09556,0.62284 -3.25926,2.75005 -3.0302,2.9791 0.13918,0.13919 1.24419,-0.60382 2.19312,-1.47465 1.16731,-1.07125 1.98058,-1.48896 3.27321,-1.68122 2.25946,-0.33605 7.08349,0.4978 7.08349,1.2244 0,0.26974 -2.59173,1.3473 -6.82735,2.83859 -4.26207,1.50061 -17.79174,6.03058 -18.01154,6.03058 -0.34699,0 -0.5201,-0.5157 -0.44631,-1.32956 0.22715,-2.50496 2.43236,-4.24346 6.13928,-4.83996 0.684,-0.11007 2.27391,-0.25202 3.53314,-0.31544 1.25923,-0.0634 2.43865,-0.1739 2.62093,-0.24548 0.5751,-0.22583 -2.78276,-0.34907 -4.75639,-0.17457 -4.95492,0.4381 -7.54195,2.11005 -8.1151,5.24463 -0.14895,0.8146 -0.0535,2.4558 0.14285,2.4558 0.0602,0 4.00774,-1.28914 8.7722,-2.86477 z"
     id="path3602"
     inkscape:connector-curvature="0" />
  <path
     style="fill:#000000"
     d="m 406.35283,315.18731 -0.76228,-0.0478 0,-29.82161 c 0,-22.28021 0.0383,-29.8216 0.15153,-29.8216 0.0833,0 1.32504,0.32886 2.75934,0.73081 1.43429,0.40194 3.07156,0.81954 3.63837,0.92799 1.90061,0.36364 3.30675,0.19183 3.64797,-0.44574 0.4311,-0.80552 -0.11461,-2.28263 -1.20574,-3.26366 -0.82921,-0.74552 -3.07644,-2.04934 -6.41879,-3.72411 l -2.57268,-1.2891 0,-7.6129 0,-7.6129 0.29828,0.0895 c 0.16406,0.0492 1.3721,0.51316 2.68454,1.031 3.37786,1.33278 8.61406,3.98488 14.31755,7.25175 4.91012,2.81244 6.90196,3.87925 8.19293,4.38805 1.05867,0.41724 0.64234,0.14642 -0.73138,-0.47576 -0.67692,-0.30659 -1.93547,-1.0166 -2.79678,-1.57781 -7.5209,-4.90048 -14.28323,-8.46107 -20.20729,-10.63984 l -1.75526,-0.64556 -0.001,-0.4938 -10e-4,-0.4938 1.0937,0.40212 c 6.69668,2.46214 13.2034,5.81562 20.62708,10.63092 1.11879,0.72569 2.69969,1.63324 3.51311,2.01677 l 1.47894,0.69734 3.11539,0.1484 c 12.39203,0.59027 28.59117,5.70537 41.69323,13.1652 2.79335,1.59043 6.75779,4.01358 7.62277,4.65919 1.12673,0.84099 2.52849,2.30626 3.29981,3.44931 l 0.69989,1.03719 0.28068,-0.56729 c 1.20737,-2.44033 6.67641,-5.51816 16.00281,-9.00597 3.92791,-1.46893 6.17197,-2.24527 15.27967,-5.28601 l 8.98259,-2.99898 0.0322,-1.78666 c 0.0307,-1.70251 0.0522,-1.82886 0.45657,-2.68264 1.45579,-3.07383 4.77211,-4.4731 10.60141,-4.4731 l 2.44879,0 1.08428,-1.10332 c 1.17531,-1.19596 2.40475,-2.00364 3.80196,-2.4977 0.75108,-0.26559 1.11698,-0.30495 2.85025,-0.30661 1.68584,-0.002 2.14962,0.0446 3.04669,0.30377 2.04835,0.59746 3.518,1.65151 5.30362,2.5433 0.22274,0 4.61123,-1.5862 9.28148,-3.35476 22.03965,-8.3461 38.54521,-16.84394 49.28934,-25.37647 4.89279,-3.88565 9.02636,-8.16862 11.77416,-12.19972 l 0.92626,-1.35884 0.72713,0 c 0.71171,0 0.72383,0.006 0.57173,0.29828 -9.15308,13.10698 -24.15905,22.21892 -35.11752,27.82934 -7.28136,0.16003 -45.45135,21.9756 -28.90023,15.98415 30.27092,-10.66592 53.67268,-16.48839 70.72603,-17.59699 1.0937,-0.0711 2.65968,-0.13019 3.47996,-0.13132 0.82027,-0.001 1.49141,-0.0495 1.49141,-0.10738 0,-0.0579 -0.31243,-0.3413 -0.69427,-0.62971 -9.00257,-6.03917 -10.0604,-17.6505 -10.21776,-25.64637 l 0.6645,0 0.6645,0 0.0785,4.27538 c 0.10347,5.63819 0.42549,7.91457 1.50392,10.63141 1.57908,3.97812 4.64267,7.33509 10.42383,11.42203 0.89112,0.62997 1.67493,1.19584 1.7418,1.25748 0.0669,0.0616 -0.76831,0.0764 -1.85598,0.0328 -2.35924,-0.0946 -7.47555,0.13364 -11.05859,0.49341 -16.45833,1.65256 -38.32664,7.29755 -66.21866,17.09339 -2.11449,0.74262 -4.19134,1.47087 -4.61522,1.61835 -0.60713,0.21122 -0.75284,0.31418 -0.68653,0.48511 0.24568,0.6333 0.46295,1.74838 0.46295,2.37598 0,0.60911 -0.11643,0.9397 -0.81037,2.30081 -1.25846,2.4684 -2.31185,3.76448 -4.60171,5.66193 -0.53405,0.44253 -1.08372,0.9479 -1.22149,1.12305 -0.72476,0.92138 -0.53092,2.63308 0.63326,5.59159 0.73982,1.88012 1.79725,4.22193 4.60931,10.20788 5.29191,11.26477 7.32108,16.35535 8.34806,20.94282 0.39724,1.77447 0.37947,2.24261 -0.13732,3.61559 -1.80841,4.80451 -6.53237,10.06467 -15.40923,17.15829 -1.62081,1.29521 -1.63354,1.30222 -2.36424,1.30222 l -0.73465,0 2.30338,-1.83253 c 3.58738,-2.85405 5.94241,-4.92129 8.40186,-7.37512 3.88494,-3.87607 6.11658,-7.0094 7.08353,-9.94559 0.28507,-0.86566 0.29387,-0.98857 0.13746,-1.91943 -0.21223,-1.26307 -1.02781,-4.14924 -1.70803,-6.04438 -1.3555,-3.77654 -3.10107,-7.78485 -6.98278,-16.03444 -3.03157,-6.44283 -4.25737,-9.23164 -4.81804,-10.9616 -0.22011,-0.67916 -0.42935,-1.32432 -0.46495,-1.43369 -0.0442,-0.13581 -0.068,-0.11479 -0.0749,0.0663 -0.018,0.46823 1.39365,4.4266 2.55291,7.15877 0.61873,1.45827 1.97123,4.53058 3.00557,6.82735 4.99291,11.08701 6.72983,15.4507 7.34567,18.45477 0.26655,1.30015 0.269,3.26763 0.005,4.27984 -0.57837,2.22055 -2.9544,5.61777 -6.22092,8.89463 -2.38653,2.39409 -4.39199,4.14477 -8.63313,7.53635 l -2.90503,2.32311 -13.85356,1.3e-4 -13.85355,1.4e-4 0.73155,-0.69332 c 0.40235,-0.38133 1.9463,-1.8268 3.431,-3.21215 4.00159,-3.73383 8.17204,-8.22425 9.0849,-9.78194 0.42196,-0.72002 0.80623,-1.828 0.90635,-2.61334 0.0705,-0.55312 0.0651,-0.56761 -0.0743,-0.19886 -0.37787,0.9997 -1.57205,3.18063 -2.28811,4.17877 -1.88986,2.6345 -5.68982,6.5303 -10.26681,10.52588 l -2.05483,1.79381 -0.72251,0.003 c -0.418,0.002 -0.66943,-0.0454 -0.59657,-0.11215 0.0693,-0.0635 0.78217,-0.67161 1.58421,-1.35139 3.98867,-3.3806 8.42463,-7.71459 10.30569,-10.06879 1.27528,-1.59603 2.34162,-3.29127 2.89748,-4.60633 0.65391,-1.547 0.64587,-2.26318 -0.13059,-11.63145 -0.36864,-4.44772 -1.03338,-12.6969 -1.4772,-18.33151 l -0.80695,-10.24475 -0.75427,-1.18777 c -0.41484,-0.65327 -0.83364,-1.1885 -0.93066,-1.1894 -0.19547,-0.002 -1.66142,0.55974 -13.14688,5.03611 -17.77338,6.92703 -24.47698,9.22523 -27.69084,9.49326 l -1.04097,0.0868 0.11787,0.47957 c 0.21741,0.88451 0.28628,3.87508 0.12177,5.2874 -0.95899,8.23267 -6.80589,18.49804 -17.89844,31.42422 -1.20793,1.40761 -2.21223,2.60394 -2.23176,2.65852 -0.0195,0.0546 0.31676,1.0207 0.74732,2.14694 l 0.78284,2.0477 -0.32767,0.043 c -0.18022,0.0237 -0.4035,0.0139 -0.49618,-0.0216 -0.0927,-0.0356 -0.52015,-0.99682 -0.94993,-2.13612 -0.43648,-1.15704 -0.80015,-1.95195 -0.82385,-1.80075 -0.0513,0.3276 0.25201,1.43095 0.77892,2.8331 0.21469,0.57131 0.39035,1.06347 0.39035,1.0937 0,0.0668 -62.72244,0.0246 -63.79925,-0.043 l 0,0 z m 65.22832,-7.39223 c 10.61271,-12.32427 16.43229,-22.35116 17.60811,-30.33804 0.29252,-1.98692 0.19748,-4.88003 -0.20957,-6.37985 -0.74984,-2.76284 -2.44826,-5.24357 -4.7561,-6.9468 -1.03898,-0.76679 -5.56373,-3.52959 -8.10587,-4.94943 -12.55525,-7.01236 -28.39555,-12.06673 -39.80109,-12.69985 -5.86212,-0.3254 -4.49143,0.12218 2.42201,0.79088 5.81694,0.56264 11.1675,1.76573 17.9576,4.03784 5.61247,1.87805 10.07126,3.73747 15.31182,6.38539 6.61116,3.34045 11.01123,6.14939 13.46776,8.59764 2.31871,2.31088 3.10347,4.43647 3.10347,8.40597 0,5.95401 -2.4475,12.26938 -7.86649,20.29814 -1.64766,2.44117 -3.76531,5.2312 -7.88272,10.38553 -1.91051,2.39167 -3.56309,4.52142 -3.6724,4.73279 -0.52727,1.01964 -0.10165,0.61215 2.42347,-2.32021 z m 76.88632,-5.91297 c 2.51482,-1.40285 5.90011,-3.45302 7.92131,-4.79724 1.53569,-1.02132 3.24797,-2.3042 3.24797,-2.43344 0,-0.0791 0.47006,-0.36783 -5.17023,3.17554 -2.74996,1.7276 -5.71153,3.47569 -6.86049,4.04946 -1.11193,0.55528 -2.02169,1.06304 -2.02169,1.12836 0,0.30166 1.09211,-0.1236 2.88313,-1.12268 z m -2.35747,-2.4943 0.5065,-3.06321 -1.86597,-18.68866 c -1.02629,-10.27876 -1.83583,-18.71881 -1.79898,-18.75566 0.0369,-0.0369 0.24163,-0.0997 0.45505,-0.13972 l 0.38805,-0.0727 4.33213,8.32381 c 2.91842,5.60752 5.56818,10.94584 8.1199,16.35874 l 3.78778,8.03493 0.003,1.44382 0.003,1.44382 0.2593,-0.33143 c 0.41564,-0.53123 0.44763,-1.04657 0.12375,-1.9937 -1.61467,-4.72176 -13.64663,-29.07495 -16.32274,-33.03789 -0.51205,-0.75827 -0.8222,-0.9222 -1.14121,-0.60319 -0.22497,0.22497 -0.20392,3.08506 0.0437,5.93913 0.11071,1.27598 0.58726,6.19764 1.05901,10.93701 1.66506,16.72797 1.86314,20.33226 1.44256,26.24884 -0.0466,0.65622 -0.0435,1.15402 0.007,1.10621 0.0505,-0.0478 0.31972,-1.46536 0.59829,-3.15013 l 10e-6,0 z m 1.99317,1.23926 c 0.61976,-0.33075 3.37887,-2.01119 6.13135,-3.73431 l 5.00452,-3.13293 0,-0.96155 0,-0.96155 -2.72836,-5.80809 c -1.5006,-3.19445 -3.76268,-7.89607 -5.02684,-10.44804 -2.46741,-4.98101 -7.23008,-14.11869 -7.35882,-14.11869 -0.043,0 0.70542,7.83728 1.66326,17.41618 l 1.74153,17.41619 -0.37427,2.30358 c -0.4118,2.53468 -0.42252,2.636 -0.27865,2.6328 0.0547,-10e-4 0.60651,-0.27283 1.22628,-0.60359 z m -10.78425,-8.50838 c -0.13454,-4.00486 -0.94628,-14.76971 -1.75192,-23.23287 -0.43424,-4.56165 -0.98376,-9.4545 -1.07171,-9.54224 -0.0381,-0.038 -0.0311,0.34852 0.0154,0.85892 0.0466,0.51039 0.46875,5.81981 0.93819,11.79872 1.14674,14.60494 1.82553,22.73573 1.89807,22.73573 0.0329,0 0.0203,-1.17821 -0.0281,-2.61826 z m -46.18367,-22.34938 c -327.4235,332.15379 -163.71175,166.0769 0,0 z m 43.13825,-12.11686 c -6.85995,-9.37622 8.17383,-5.80265 10.61483,-6.69804 9.60533,-3.61179 15.25021,-7.20581 16.58116,-7.33032 0.74141,-0.0694 0.40636,2.71506 0.54704,2.97789 0.51457,0.96149 -1.73606,4.59243 -4.56813,7.36973 -1.40403,1.37689 -2.05759,2.2729 -2.05097,2.81183 0.002,0.1305 0.11321,-0.006 0.24803,-0.30242 0.14799,-0.32585 0.63064,-0.87741 1.21806,-1.39198 2.85228,-2.49857 3.68165,-3.48286 4.82761,-5.72936 0.57446,-1.12615 0.72958,-1.5612 0.72958,-2.04613 0,-0.67818 -0.3702,-2.15783 -0.53987,-2.15783 -0.39761,0 -28.76183,10.69772 -29.0026,10.93849 -0.028,0.028 0.0875,0.27771 0.25652,0.55497 0.72395,1.18731 1.20592,1.91507 1.24105,1.87394 0.0207,-0.0243 -0.0253,-0.41612 -0.10231,-0.87077 z m 21.08357,-0.26524 c -0.0305,-0.20151 -0.0562,-0.0681 -0.0572,0.29646 -0.001,0.36457 0.024,0.52944 0.0554,0.36639 0.0315,-0.16305 0.0323,-0.46134 0.002,-0.66285 l -4e-5,0 z m -26.02887,-5.75986 c 6.29975,-2.46566 22.68701,-4.29514 27.8125,-6.14641 9.92085,-8.23068 -25.56376,5.1706 -26.45029,5.50103 -0.26231,0.2623 0.59418,4.17973 0.96684,4.17927 0.11702,-1.3e-4 -3.27692,-3.1629 -2.32905,-3.53389 z m 21.82911,-11.11676 c 1.90805,-1.97462 10.34903,1.58045 4.72119,-1.173 -1.64107,-0.79932 -2.82218,-1.16954 -4.24805,-1.33155 -2.75012,-0.31249 -5.19549,0.58037 -7.12201,2.60042 -1.72675,1.81056 -1.06664,1.78974 1.02307,-0.0323 1.39284,-1.21442 2.13451,-1.60532 3.42706,-1.80627 2.21592,-0.3445 9.06735,1.14983 9.06735,1.87469 0,0.27946 -3.84181,0.42296 -7.93421,1.89054 -3.72579,1.33612 -19.85083,9.5687 -19.85083,9.5687 -0.34915,0.0545 0.45701,-3.74447 0.53128,-4.56363 0.18337,-2.0222 1.60346,-3.5086 4.16837,-4.36297 1.40975,-0.46959 2.56608,-0.63479 5.59378,-0.79918 1.26919,-0.0689 2.36361,-0.1813 2.43205,-0.24974 0.22056,-0.22056 -2.76265,-0.32407 -4.58689,-0.15917 -3.96402,0.35834 -6.63505,1.61071 -7.64108,3.5827 -0.43495,0.85257 -0.69551,2.2995 -0.59057,3.27947 0.0491,0.45863 0.12666,0.83387 0.17233,0.83387 0.0457,0 5.78054,-0.29169 6.86974,-0.5753 z"
     id="path3604"
     inkscape:connector-curvature="0"
     sodipodi:nodetypes="ccsssssssccccsssssscccssscssssccsscscscsscccssscscccscsccccsssccsscssssssssssscsscssssccssccsscccssscccscccssssscscscccsscscccscsscccssssssssssssscssssssssccssccssccccssssscccccsscccsssscscscsccssccccccccsccsssssccccsccccscccsccssssssscssssscscc" />
</svg>
