<?xml version="1.0" encoding="UTF-8" standalone="no"?>
<!-- Created with Inkscape (http://www.inkscape.org/) -->

<svg
   xmlns:dc="http://purl.org/dc/elements/1.1/"
   xmlns:cc="http://creativecommons.org/ns#"
   xmlns:rdf="http://www.w3.org/1999/02/22-rdf-syntax-ns#"
   xmlns:svg="http://www.w3.org/2000/svg"
   xmlns="http://www.w3.org/2000/svg"
   xmlns:sodipodi="http://sodipodi.sourceforge.net/DTD/sodipodi-0.dtd"
   xmlns:inkscape="http://www.inkscape.org/namespaces/inkscape"
   id="svg3548"
   version="1.1"
   inkscape:version="0.91 r"
   width="1366"
   height="768"
   viewBox="0 0 1366 768"
   sodipodi:docname="Kokopelli2.svg">
  <metadata
     id="metadata3554">
    <rdf:RDF>
      <cc:Work
         rdf:about="">
        <dc:format>image/svg+xml</dc:format>
        <dc:type
           rdf:resource="http://purl.org/dc/dcmitype/StillImage" />
        <dc:title></dc:title>
      </cc:Work>
    </rdf:RDF>
  </metadata>
  <defs
     id="defs3552" />
  <sodipodi:namedview
     pagecolor="#ffffff"
     bordercolor="#666666"
     borderopacity="1"
     objecttolerance="10"
     gridtolerance="10"
     guidetolerance="10"
     inkscape:pageopacity="0"
     inkscape:pageshadow="2"
     inkscape:window-width="1366"
     inkscape:window-height="716"
     id="namedview3550"
     showgrid="false"
     inkscape:zoom="0.66673026"
     inkscape:cx="412.16601"
     inkscape:cy="340.95862"
     inkscape:window-x="0"
     inkscape:window-y="0"
     inkscape:window-maximized="1"
     inkscape:current-layer="svg3548"
     showguides="false" />
  <path
     style="fill:none;fill-rule:evenodd;stroke:#000000;stroke-width:1px;stroke-linecap:butt;stroke-linejoin:miter;stroke-opacity:1"
     d="M 632.9668 193.75 C 623.94487 214.37253 590.98381 229.29214 558.89844 240.73438 C 554.47278 237.12477 547.41738 235.3866 543.13477 241.55078 C 534.5118 240.84014 528.2641 243.14376 529.94531 250.47852 C 504.55938 258.7424 485.62588 264.91524 489.81836 270.38281 C 492.52333 271.43568 509.5284 264.47075 532.06055 255.69922 C 532.59579 256.67656 533.21569 257.70394 533.94922 258.79883 C 534.96355 271.98508 536.23137 287.78946 536.94922 296.03711 C 537.47846 302.1178 527.4132 311.18466 510.70117 324.04297 C 497.51291 321.81704 496.7321 321.22238 483.51562 326.29297 C 473.27866 321.63046 473.70494 322.1665 469.45508 310.91797 C 504.2028 272.2785 484.83197 263.92031 481.45312 261.79883 C 458.19422 247.19525 437.20898 246.04883 437.20898 246.04883 L 432.33398 245.86328 L 429.33398 244.55078 C 422.21014 239.75465 411.61265 233.24988 399.33594 230.30078 C 357.0217 223.01988 322.66715 235.43513 338.01562 243.05859 C 344.62943 244.82667 387.94556 241.54203 394.98438 244.85742 C 394.98438 244.85742 415.5511 252.7217 415.37695 255.93164 C 414.98693 258.37297 405.72576 253.82432 400.64844 253.54883 C 369.4709 248.16407 353.82951 253.44077 336.70703 268.00586 C 313.88607 287.80127 320.11627 297.91776 340.4668 283.92188 C 355.47916 275.132 358.68704 267.26709 380.58789 266.85938 C 381.90026 266.67189 393.4261 266.9413 393.90039 269.10938 C 394.39111 271.35256 391.86587 272.71419 390.80273 272.96875 C 370.53563 273.18076 353.5595 275.40292 338.72852 310.26367 C 330.81857 328.85629 332.15669 344.07678 341.4375 328.27734 C 349.5976 312.46647 368.32545 279.82747 395.21289 290.48242 C 398.40008 291.98228 394.65039 295.73242 394.65039 295.73242 C 373.40586 305.16283 360.4513 313.60913 346.6543 339.97852 C 337.30216 370.43131 349.84096 367.67096 359.77734 346.16602 C 365.62595 328.80834 384.70458 316.81402 407.77344 315.79297 C 412.90454 319.9877 375.23415 315.89164 363.36328 356.77344 C 362.83852 360.97152 356.30014 379.57045 370.95312 374.06836 C 383.77571 347.83161 387.8731 333.83367 424.45898 326.29297 C 443.05314 325.35481 445.23555 323.68085 461.95508 333.04102 C 490.97328 359.02749 528.1237 406.16384 482.20312 458.2793 C 473.08173 473.48161 473.33714 474.92492 478.45508 485.27734 C 473.97944 519.15285 480.84598 524.85328 452.20703 501.77539 C 443.07403 496.06727 441.42913 489.97373 437.20898 500.27539 C 418.40354 559.2176 447.25573 563.11713 449.95703 518.27344 C 468.10619 523.52714 479.90895 533.19521 484.45312 516.77344 C 490.51158 543.82578 452.4844 554.76883 470.95508 573.01953 C 524.65713 589.69467 547.74553 557.53186 485.95312 556.48242 C 494.46322 537.22138 499.34888 529.37044 498.70312 507.77539 C 501.46112 488.56319 518.8691 502.21173 528.69922 484.52734 C 551.78872 444.1581 562.21384 390.21214 527.2832 333.96484 C 541.34652 322.37574 567.8325 307.15929 570.21094 295.05469 C 568.68932 285.06164 558.88846 268.19401 556.44727 260.95117 C 554.00608 253.70833 558.92409 257.40346 562.83984 248.03516 C 563.07249 246.93108 562.76631 245.66462 562.07031 244.40039 C 591.43412 233.84183 623.46692 224.19469 645.34961 224.67188 C 631.83793 215.25913 632.9519 209.42643 632.9668 193.75 z "
     id="path3558" />
  <path
     style="fill:none;fill-rule:evenodd;stroke:#000000;stroke-width:1px;stroke-linecap:butt;stroke-linejoin:miter;stroke-opacity:1"
     d="m 544.48023,262.66584 3.74964,37.49643 -0.9374,5.81194 3.37467,-1.68734 10.12404,-6.37439 0,-2.43727 -7.78051,-16.49843 z"
     id="path3562"
     inkscape:connector-curvature="0"
     sodipodi:nodetypes="cccccccc" />
  <path
     style="fill:#000000"
     d=""
     id="path3570"
     inkscape:connector-curvature="0" />
  <path
     style="fill:#000000"
     d=""
     id="path3576"
     inkscape:connector-curvature="0" />
  <path
     style="fill:#000000"
     d="M 631.38281 200.49414 L 622.0957 209.10938 C 604.48307 224.66503 582.11257 233.85695 560.02734 241.03125 C 555.0708 241.59197 549.79984 236.0975 545.50195 241.05664 C 540.13899 242.81683 531.23342 242.37263 530.76562 249.93555 C 518.99803 257.38427 503.7359 258.80283 492.30078 267.18555 C 494.59164 269.64209 500.1504 265.56792 503.16797 265.29492 C 513.20168 262.66308 522.70705 255.86357 533.19531 255.90039 C 537.34745 268.38549 537.02189 282.61158 537.75586 295.83789 C 537.45289 304.51868 527.72166 309.32451 522.80273 315.51367 C 517.20072 322.05555 511.28408 327.48577 502.29883 324.01562 C 493.37756 321.76112 484.15639 331.46739 476.37305 324.12695 C 470.50325 319.83844 466.02515 310.68305 472.69727 304.94141 C 480.5661 294.7407 492.22365 281.35841 486.25977 267.69727 C 474.22892 256.55091 457.43149 251.71013 441.76172 247.94531 C 424.35494 246.98475 411.65732 232.28417 394.20703 230.91016 C 375.64725 228.32379 355.36056 228.15826 338.11133 236.25977 C 333.81288 238.64946 338.22091 242.85278 341.76367 242.00977 C 359.40257 243.59553 377.46099 241.58056 394.89453 243.27344 C 401.45325 247.42531 411.29343 248.62318 415.75781 255.38281 C 414.52955 260.35013 406.66845 254.66876 403.39648 255.51367 C 382.84801 251.18067 359.42745 251.40398 342.54688 265.63281 C 335.51752 271.78404 325.81227 277.78034 323.58398 287.33398 C 327.31734 291.7455 333.98803 285.27917 337.89648 283.70898 C 350.3272 276.10999 362.1505 265.55125 377.66992 266.06055 C 382.83586 266.40549 391.08009 264.07094 394.52734 268.79688 C 394.49314 275.82337 384.46344 273.19734 380.06055 274.81641 C 355.62507 277.51106 340.90268 301.24755 336.08594 323.32031 C 336.05494 325.48375 333.18571 332.06501 336.34375 332.38477 C 347.68894 316.88473 356.40553 295.95383 375.85547 289.0625 C 382.54737 287.711 393.23171 285.46922 397.54492 292.25781 C 396.59264 298.15081 387.9772 299.21383 383.91602 302.45703 C 364.33251 314.77446 344.70252 333.91983 345.17383 358.79883 C 345.74064 364.49452 351.56703 357.5343 352.58594 355.57422 C 360.40966 343.1808 365.7688 327.45073 380.79492 321.85742 C 389.44855 318.60984 399.60684 312.84035 408.91797 315.875 C 409.5305 319.37184 402.07039 319.53793 399.91797 321.06055 C 379.35018 326.675 364.59014 346.05962 363.26367 367.08984 C 361.716 371.40784 366.13548 375.34532 369.75195 372.00586 C 378.7543 358.73873 383.53823 340.78516 399.44141 333.54688 C 417.52855 324.84839 440.73628 320.50923 459.13672 330.48438 C 478.52709 344.74235 494.38203 365.02102 502.05273 387.94336 C 503.78258 401.85066 505.32636 416.86659 500.75781 430.35938 C 495.17468 446.75928 480.58464 458.63425 475.99609 475.27148 C 479.57871 483.2081 479.62052 491.94074 477.94727 500.49805 C 476.32204 505.442 478.35882 514.24672 472.73438 516.88086 C 460.93604 512.90901 452.72254 500.56903 440.61133 497.46289 C 434.87473 507.85076 433.55437 520.72137 432.25586 532.48438 C 432.66854 536.84352 431.76642 546.51724 438.10938 546.48047 C 447.67401 540.1408 446.04219 526.43346 450.45117 517.125 C 459.76884 518.46788 469.45554 527.27238 478.99219 523.29688 C 481.78413 522.02764 482.58129 515.13224 485.66211 516.42773 C 489.44073 533.53481 474.40882 545.95081 467.81836 559.95312 C 465.39396 568.06885 473.76132 574.48574 481.35156 574.1543 C 493.69297 577.35374 508.53527 578.20969 519.67773 571.17188 C 524.5035 566.14654 515.01572 562.21743 511.1543 561.36133 C 502.83611 558.60827 493.26109 558.67699 485.28125 556.39453 C 491.27899 541.38202 497.43277 526.16732 497.6582 509.72266 C 497.54936 501.44735 503.78868 494.7166 512.02734 494.16406 C 528.17111 490.49807 532.77616 472.45484 538.96875 459.41211 C 549.05929 434.22474 550.01789 405.72715 544.82422 379.31445 C 541.07467 363.28701 533.87674 348.24463 526.13477 333.96094 C 534.80595 325.7736 545.90302 319.3243 554.75586 310.92773 C 559.96239 305.7099 568.67258 300.51355 568.80469 292.76367 C 564.87681 280.67396 556.18032 269.34192 555.87109 256.35742 C 557.73488 252.22016 561.79899 249.15168 562.01758 244.27734 C 574.63296 236.85915 589.89486 234.57203 603.73438 229.9043 C 615.36481 226.28 627.73076 225.36787 639.44727 222.74219 C 633.84454 216.69038 631.95829 208.30886 631.38281 200.49414 z M 544.60547 262.16406 C 551.79659 272.52173 557.8125 284.47042 561.2207 296.63086 C 559.28551 302.09203 551.95006 304.81063 547.48828 306.69141 C 545.90373 292.16807 544.47316 277.34739 543.89648 262.78711 C 543.99699 262.4898 544.22397 262.06344 544.60547 262.16406 z "
     id="path3708" />
</svg>
